<?xml version="1.0" encoding="utf-8"?>
<!-- Generator: Adobe Illustrator 21.1.0, SVG Export Plug-In . SVG Version: 6.00 Build 0)  -->
<svg version="1.1" id="Layer_1" xmlns="http://www.w3.org/2000/svg" xmlns:xlink="http://www.w3.org/1999/xlink" x="0px" y="0px"
	 width="66px" height="64px" viewBox="0 0 66 64" style="enable-background:new 0 0 66 64;" xml:space="preserve">
<style type="text/css">
	.st0{fill:#262002;}
	.st1{fill:#FFD70D;}
	.st2{fill:#FFF7CC;}
</style>
<g>
	<g>
		<path class="st0" d="M14,62C7.4,62,2,56.6,2,50V14C2,7.4,7.4,2,14,2h38c6.6,0,12,5.4,12,12v36c0,6.6-5.4,12-12,12H14z"/>
		<path class="st1" d="M52,4c5.5,0,10,4.5,10,10v36c0,5.5-4.5,10-10,10H14C8.5,60,4,55.5,4,50V14C4,8.5,8.5,4,14,4H52 M52,0H14
			C6.3,0,0,6.3,0,14v36c0,7.7,6.3,14,14,14h38c7.7,0,14-6.3,14-14V14C66,6.3,59.7,0,52,0L52,0z"/>
	</g>
	<path class="st2" d="M15.1,42.3C14.9,42.2,15,42,15,41.8v-4.2c0-0.1,0-0.3,0.2-0.1c2,1.4,4.1,2,6.4,2c3.2,0,4.5-1.7,4.5-3.6
		c0-1.7-0.9-3-3.9-4.8l-1.6-0.8c-4.5-2.5-5.9-5.1-5.9-8.5c0-4.5,3.1-8.1,9-8.1c2.6,0,4.8,0.4,5.9,1c0.2,0.1,0.4,0.2,0.4,0.5v4
		c0,0.2-0.3,0.3-0.5,0.2c-1.4-0.9-3.6-1.3-5.7-1.3c-3.4,0-4.5,1.9-4.5,3.5c0,1.7,0.8,2.9,3.9,4.6l1.4,0.7c5,2.8,6.3,5.5,6.3,8.8
		c0,4.9-3.5,8.3-9.3,8.3C19,43.8,16.8,43.3,15.1,42.3z M52,31.9c0,8-5.4,11.9-11,11.9c-0.4,0-1-0.1-1-0.1v6c0,0.2-0.3,0.3-0.5,0.3
		l-4.1,0.4c-0.3,0-0.4-0.1-0.4-0.3V25.4c0-0.5-0.1-1.8-0.1-2.4c0-0.1-0.1-0.2,0-0.2c1.8-0.6,4.5-1.5,7.6-1.5
		C48.6,21.3,52,25.8,52,31.9z M40,25.8v13.6c0,0.1,0.7,0.2,1.2,0.2c3,0,6-2.1,6-7.4c0-4.3-1.8-6.7-5.1-6.7
		C41.2,25.5,40,25.6,40,25.8z"/>
</g>
</svg>
